<svg width="400" height="400" xmlns="http://www.w3.org/2000/svg">

 <g>
  <title>Layer 1</title>
  <path d="m42.8,133.2c12,-9 38.02039,-21.96752 46,-27c22.05672,-13.91045 36.94585,-22.14859 45.00001,-25c2.98097,-1.05536 9,-1 9,0c0,2 -14.54131,18.47641 -30.00001,35c-14.5247,15.52525 -17.25372,21.23433 -29,36c-2.64126,3.32021 -3.4595,5.0535 -3,7c0.51374,2.17625 5.06252,3.86391 11,3c38.1983,-5.55791 60.27885,-23.09967 72.00001,-30c40.86761,-24.05907 54.07179,-25.69125 59,-27c6.11269,-1.62331 8.07907,-1.91412 7,-1c-13.12749,11.12065 -50.60106,31.06973 -99,63c-48.62157,32.07715 -64.56664,45.61211 -74.00001,60c-3.19714,4.8763 -4.3525,7.97252 0,9c10.70574,2.52728 60.00694,-3.50058 78.00001,-4c18.02081,-0.5002 43,-3 57,-1c7,1 13.15099,-0.56537 15,2c0.58472,0.81125 -4.60742,4.98289 -20,7c-9.91522,1.29933 -14,0 -14,0c-2,-1 -1.8269,-2.85274 -1,-4c2.6149,-3.62799 7.39294,-10.66017 28,-29c11.66859,-10.3848 25.80196,-16.80196 36,-27c2.54951,-2.54951 5.35818,-3.7928 5,-6c-0.45306,-2.7919 -6.22998,-6.13231 -16,-4c-25.79358,5.62947 -44.57324,19.85793 -55,35c-23.60971,34.28676 -22.38896,42.92807 -20,45c1.68924,1.46507 20.25743,-19.71173 50,-50c48.12093,-49.00382 68.24406,-72.96133 81.99998,-83c7.62054,-5.56124 16.23773,-7.85932 18,-4c5.83005,12.76756 -5.11679,36.55669 -36,72c-55.75099,63.983 -97.48842,89.6573 -118.99998,114.99998c-6.4713,7.62381 -8.4588,11.69345 -9,13c-0.38269,0.92389 3.31787,-4.03143 18,-13c29.77066,-18.18536 47.60486,-24.86575 60,-29.99998c8.76469,-3.63045 14.54915,-6.95517 18,-8c0.95709,-0.28978 0,0 -8,3c-8,3 -15.22273,7.724 -19,11c-4.27348,3.70638 -6,7.99998 -6,9.99998c0,1 14.21907,-4.686 43,-24.99998c18.14021,-12.8036 31.44551,-26.76549 44.99998,-36c4.81888,-3.28305 8.5412,-3.69344 8,-5c-0.38269,-0.92387 -4.14557,3.76381 -14,10c-9.1402,5.78419 -15.90634,11.10341 -17,12c-2.78833,2.28587 -3.4588,4.69344 -4,6c-0.38269,0.92387 -0.09366,4.10341 1,5c2.78833,2.28587 5.83807,4.46552 11,6c4.88763,1.45294 9,1 15,1c8,0 11,0 14,0c1,0 2,0 1,0c-4,0 -17.56567,1.54626 -32,8c-7.36008,3.29077 -12.41528,7.18875 -13,8c-1.84903,2.56537 -3.92157,3.21014 -1,2c18.59271,-7.70135 49.90668,-23.23875 65,-29c10.93515,-4.17403 17.33749,-8.68999 19,-6c0.7435,1.203 -4,2 -30,16c-13,7 -22.26208,12.57277 -29,17c-8.35736,5.49129 -11.48627,7.82375 -12,9.99998c-0.4595,1.9465 -0.70709,3.29291 0,4c7.07108,7.07108 24.93365,-2.36646 35,-4c7.95816,-1.29144 14.82376,-1.48627 17,-2c2.91974,-0.68927 4.68924,0.53491 3,2c-2.38895,2.07193 -4,1 -4,2c0,1 5.15686,-1.57971 11,-4c4.13171,-1.71143 8,-4 10,-4c0,0 -1,0 -10,4l-13,2" id="svg_15" stroke-width="70" stroke="red" fill="red"/>
  <path d="m336.79999,288.19998c0,0 2,0 3,0c1,0 0,-1 0,-2l0,-1l0,-1l0,-1" id="svg_16" stroke-width="70" stroke="red" fill="red"/>
  <path d="m324.79999,280.19998c0,0 0,-1 0,-2c0,-1 0,-2 0,-2l0,-1" id="svg_17" stroke-width="70" stroke="red" fill="red"/>
  <path d="m316.79999,238.2c0,0 1,0 2,0c1,0 2,0 2,0c1,0 3,1 4,2c0,0 1,0 2,1c1,1 1,2 2,2l0,1" id="svg_18" stroke-width="70" stroke="red" fill="red"/>
  <path d="m328.79999,244.2c0,0 -0.41422,0.58578 1,2c0.70709,0.70711 1.78986,2.07843 3,5c0.85571,2.06586 1,4 1,5.99998c0,1 0.4588,1.69345 1,3c1.14804,2.77164 0,4 0,4c0,1 0,2 0,4l0,0l0,1l0,1" id="svg_19" stroke-width="70" stroke="red" fill="red"/>
  <path d="m336.79999,279.19998c0,-1 0,0 0,1c0,0 0,1 0,2l0,1l0,1l0,0" id="svg_20" stroke-width="70" stroke="red" fill="red"/>
  <path d="m336.79999,284.19998c0,0 0,-1 0,-2l0,-1l0,-1" id="svg_21" stroke-width="70" stroke="red" fill="red"/>
  <polyline stroke-linecap="round" id="svg_22" points="464.7999931454659,396.19999187886725 464.7999931454659,396.19999187886725 " stroke-width="70" stroke="red" fill="red"/>
 </g>
</svg>